<?xml version="1.0" encoding="UTF-8"?>
<svg width="86px" height="86px" viewBox="0 0 86 86" version="1.1" xmlns="http://www.w3.org/2000/svg" xmlns:xlink="http://www.w3.org/1999/xlink">
    <!-- Generator: Sketch 63.1 (92452) - https://sketch.com -->
    <title>noun_QUESTION ANSWER_382059</title>
    <desc>Created with Sketch.</desc>
    <g id="Page-1" stroke="none" stroke-width="1" fill="none" fill-rule="evenodd">
        <g id="noun_QUESTION-ANSWER_382059" transform="translate(0.000000, -1.000000)" fill="#000000" fill-rule="nonzero">
            <g id="Group" transform="translate(0.000000, 0.637820)">
                <path d="M8.71875,0.36218 C3.912446,0.36218 0,4.23494 0,9.01843 L0,45.70593 C0,50.48943 3.912449,54.36218 8.71875,54.36218 L15.4375,54.36218 L15.4375,73.36218 C15.437289,73.7870617 15.7055607,74.1656978 16.1064791,74.3063709 C16.5073975,74.4470441 16.9534364,74.3190432 17.21875,73.98718 L32.5,54.36218 L43,54.36218 L43,70.76843 C43,73.80803 45.416488,76.29968 48.40625,76.29968 L65.53125,76.29968 L75.5,86.04968 C75.7823628,86.3414615 76.2131147,86.4335647 76.5901097,86.2827667 C76.9671046,86.1319687 77.215509,85.7682031 77.21875,85.36218 L77.21875,76.29968 L80.59375,76.29968 C83.583512,76.29968 86,73.80803 86,70.76843 L86,45.89343 C86,42.85383 83.583512,40.36218 80.59375,40.36218 L74,40.36218 L74,9.01843 C74,4.23494 70.087554,0.36218 65.28125,0.36218 L8.71875,0.36218 Z M8.71875,2.36218 L65.28125,2.36218 C69.022386,2.36218 72,5.31776 72,9.01843 L72,40.36218 L48.40625,40.36218 C45.416488,40.36218 43,42.85383 43,45.89343 L43,52.36218 L32,52.36218 C31.6961373,52.3620047 31.4086755,52.4999863 31.21875,52.73718 L17.4375,70.45593 L17.4375,53.36218 C17.4374448,52.8099181 16.9897619,52.3622352 16.4375,52.36218 L8.71875,52.36218 C4.977611,52.36218 2,49.40663 2,45.70593 L2,9.01843 C2,5.31776 4.977614,2.36218 8.71875,2.36218 Z M34.90625,8.29968 C29.621187,8.29968 25.09956,11.51117 24.03125,15.95593 C23.912696,16.3138319 24.0054955,16.7079906 24.2712725,16.9754067 C24.5370495,17.2428228 24.9306303,17.3380439 25.2892543,17.2216926 C25.6478782,17.1053412 25.9105906,16.7971935 25.96875,16.42468 C26.78398,13.03288 30.430013,10.29968 34.90625,10.29968 C40.024027,10.29968 44,13.8105 44,17.92468 C44,23.87907 41.805788,25.75343 39.3125,28.04968 C36.819212,30.34593 34,33.05119 34,39.29968 C33.9948997,39.6603159 34.1843753,39.9957614 34.4958728,40.1775677 C34.8073704,40.3593741 35.1926296,40.3593741 35.5041272,40.1775677 C35.8156247,39.9957614 36.0051003,39.6603159 36,39.29968 C36,33.60961 38.180788,31.8583 40.6875,29.54968 C43.194212,27.24106 46,24.41478 46,17.92468 C46,12.54096 40.944273,8.29968 34.90625,8.29968 Z M48.40625,42.36218 L80.59375,42.36218 C82.471268,42.36218 84,43.88973 84,45.89343 L84,70.76843 C84,72.77213 82.471268,74.29968 80.59375,74.29968 L76.21875,74.29968 C75.6664881,74.2997352 75.2188052,74.7474181 75.21875,75.29968 L75.21875,82.98718 L66.65625,74.61218 C66.4767303,74.4221678 66.2299503,74.309995 65.96875,74.29968 L48.40625,74.29968 C46.528732,74.29968 45,72.77213 45,70.76843 L45,45.89343 C45,43.88973 46.528732,42.36218 48.40625,42.36218 Z M35,43.33093 C33.895431,43.33093 33,44.226361 33,45.33093 C33,46.435499 33.895431,47.33093 35,47.33093 C36.104569,47.33093 37,46.435499 37,45.33093 C37,44.226361 36.104569,43.33093 35,43.33093 Z M64.375,46.29968 C63.8720437,46.3630761 63.496071,46.7927592 63.5,47.29968 L63.5,63.29968 C63.4948997,63.6603159 63.6843753,63.9957614 63.9958728,64.1775677 C64.3073704,64.3593741 64.6926296,64.3593741 65.0041272,64.1775677 C65.3156247,63.9957614 65.5051003,63.6603159 65.5,63.29968 L65.5,47.29968 C65.5022299,47.0113249 65.3798859,46.7360407 65.1643602,46.5444623 C64.9488345,46.3528839 64.661105,46.2636584 64.375,46.29968 Z M64.5,67.33093 C63.395431,67.33093 62.5,68.226361 62.5,69.33093 C62.5,70.435499 63.395431,71.33093 64.5,71.33093 C65.604569,71.33093 66.5,70.435499 66.5,69.33093 C66.5,68.226361 65.604569,67.33093 64.5,67.33093 Z" id="Shape"></path>
            </g>
        </g>
    </g>
</svg>