<?xml version="1.0" encoding="UTF-8"?>
<svg width="90px" height="86px" viewBox="0 0 90 86" version="1.1" xmlns="http://www.w3.org/2000/svg" xmlns:xlink="http://www.w3.org/1999/xlink">
    <!-- Generator: Sketch 63.1 (92452) - https://sketch.com -->
    <title>noun_group_309352</title>
    <desc>Created with Sketch.</desc>
    <g id="Page-1" stroke="none" stroke-width="1" fill="none" fill-rule="evenodd">
        <g id="noun_group_309352" fill="#000000" fill-rule="nonzero">
            <path d="M27.5,31.875 C17.383805,31.875 11.082119,37.663852 7.21875,44.46875 C3.3553805,51.273649 1.718634,59.14863 0.5,63.75 C-0.154845,66.22259 -0.204879,68.371565 0.625,70.15625 C1.454881,71.940935 3.1234435,73.186107 5.375,74.03125 C9.878113,75.721534 17.007603,76.09375 27.5,76.09375 C30.265717,76.09375 32.782857,76.068331 35.09375,76 C34.940738,77.508929 35.099201,78.864548 35.65625,80.0625 C36.48613,81.84718 38.154694,83.09236 40.40625,83.9375 C44.909363,85.62778 52.007604,86 62.5,86 C72.9924,86 80.121889,85.62778 84.625,83.9375 C86.87656,83.09236 88.54512,81.84718 89.375,80.0625 C90.20488,78.277814 90.15484,76.128842 89.5,73.65625 C88.28137,69.054879 86.64462,61.179899 82.78125,54.375 C78.917878,47.570102 72.616195,41.78125 62.5,41.78125 C56.80964,41.78125 52.334306,43.627318 48.8125,46.4375 C48.483511,45.773578 48.14919,45.116836 47.78125,44.46875 C43.917881,37.663852 37.616196,31.875 27.5,31.875 Z M27.5,34.09375 C36.787564,34.09375 42.2129,39.167158 45.84375,45.5625 C46.290637,46.349641 46.704424,47.15131 47.09375,47.96875 C45.154539,49.861654 43.53614,52.054564 42.21875,54.375 C38.35538,61.179899 36.749884,69.05488 35.53125,73.65625 C35.522883,73.687841 35.508169,73.71852 35.5,73.75 C33.086312,73.832806 30.448061,73.875 27.5,73.875 C17.06431,73.875 10.001089,73.411945 6.15625,71.96875 C4.2338315,71.247152 3.154541,70.388794 2.625,69.25 C2.09546,68.111205 2.045032,66.533621 2.625,64.34375 C3.875995,59.620188 5.49415,51.957842 9.125,45.5625 C12.75585,39.167158 18.212436,34.09375 27.5,34.09375 Z M62.5,44 C71.787563,44 77.244154,49.073408 80.875,55.46875 C84.505852,61.864092 86.12401,69.526439 87.375,74.25 C87.95497,76.439872 87.90454,77.986206 87.375,79.125 C86.84546,80.2638 85.76617,81.15341 83.84375,81.875 C79.998909,83.3182 72.935688,83.78125 62.5,83.78125 C52.064311,83.78125 45.001088,83.3182 41.15625,81.875 C39.233831,81.15341 38.18579,80.2638 37.65625,79.125 C37.271589,78.297774 37.133553,77.262247 37.3125,75.90625 C42.640147,75.662856 46.67336,75.127444 49.59375,74.03125 C51.845307,73.186108 53.51387,71.940935 54.34375,70.15625 C55.17363,68.371565 55.123597,66.222592 54.46875,63.75 C53.484868,60.035011 52.228878,54.199464 49.75,48.5 C52.959102,45.767861 57.053574,44 62.5,44 Z M48.03125,50.09375 C50.193117,55.303013 51.378512,60.699158 52.34375,64.34375 C52.92372,66.533622 52.873289,68.111206 52.34375,69.25 C51.814209,70.388794 50.766169,71.247152 48.84375,71.96875 C46.440725,72.870747 42.768612,73.400807 37.8125,73.65625 C39.046498,68.904265 40.65933,61.628189 44.15625,55.46875 C45.261201,53.5225 46.534709,51.689091 48.03125,50.09375 Z" id="Shape"></path>
            <path d="M27.489172,0.957511 C19.989506,0.957511 13.344545,7.623737 13.3482874,15.123159 C13.352089,22.616993 19.995371,29.239277 27.489172,29.239277 C34.982971,29.239277 41.624309,22.616634 41.6300588,15.123159 C41.635855,7.621781 34.988648,0.957511 27.489172,0.957511 Z M27.489172,3.186372 C33.64238,3.186372 39.405919,8.968357 39.4011969,15.123159 C39.396494,21.271878 33.637564,27.035182 27.489172,27.035182 C21.340779,27.035182 15.580303,21.271519 15.5771487,15.123159 C15.57405,8.969899 21.336153,3.186372 27.489172,3.186372 Z" id="Shape"></path>
            <path d="M62.510828,10.862626 C55.011162,10.862626 48.366201,17.528852 48.3699444,25.028274 C48.373746,32.522108 55.017027,39.144392 62.510828,39.144392 C70.004629,39.144392 76.645962,32.521749 76.6517188,25.028274 C76.657515,17.526896 70.010306,10.862626 62.510828,10.862626 Z M62.510828,13.091487 C68.664036,13.091487 74.427713,18.873472 74.4228511,25.028274 C74.417948,31.176993 68.659221,36.940297 62.510828,36.940297 C56.362435,36.940297 50.60196,31.176634 50.5988047,25.028274 C50.595706,18.875014 56.357809,13.091487 62.510828,13.091487 Z" id="Shape"></path>
        </g>
    </g>
</svg>