<?xml version="1.0" encoding="UTF-8"?>
<svg width="119px" height="119px" viewBox="0 0 119 119" version="1.1" xmlns="http://www.w3.org/2000/svg" xmlns:xlink="http://www.w3.org/1999/xlink">
    <!-- Generator: Sketch 63.1 (92452) - https://sketch.com -->
    <title>noun_Mentor_1132387</title>
    <desc>Created with Sketch.</desc>
    <g id="Page-1" stroke="none" stroke-width="1" fill="none" fill-rule="evenodd">
        <g id="noun_Mentor_1132387" transform="translate(-5.000000, -5.000000)">
            <rect id="Rectangle" x="0" y="0" width="128" height="128"></rect>
            <path d="M122.721,79 L116.97,61.757 L114.97,53.757 L114.449,53.887 C115.887,51.886 116.487,49.338 115.991,46.859 C114.046,37.133 108.841,28.268 101.319,21.815 C102.377,20.125 102.999,18.136 102.999,16 C102.999,9.935 98.064,5 91.999,5 C85.934,5 81,9.935 81,16 C81,20.956 84.296,25.154 88.81,26.525 L85.14,39.372 L73.446,47.168 C73.41,47.192 73.388,47.227 73.357,47.255 C73.338,47.271 73.312,47.275 73.294,47.293 L61.586,59 L50.479,59 C52.053,57.097 53,54.657 53,52 C53,45.935 48.065,41 42,41 C35.935,41 31,45.935 31,52 C31,55.317 32.482,58.288 34.811,60.307 L28.867,75.761 C27.845,78.418 28.121,81.328 29.625,83.745 C30.045,84.419 30.547,85.017 31.107,85.545 L25.207,95.379 L15.294,105.292 C14.903,105.683 14.903,106.315 15.294,106.706 L21.294,112.706 C21.488,112.902 21.744,113 22,113 C22.256,113 22.512,112.902 22.707,112.707 L34.707,100.707 C34.754,100.66 34.795,100.609 34.832,100.555 L42.832,88.555 L42.797,88.531 L47,88.913 L47,99 L44,99 C43.685,99 43.389,99.148 43.2,99.4 L31.42,115.107 L5.775,121.025 C5.321,121.13 5,121.534 5,122 L5,124 L7,124 L7,122.796 L32.226,116.975 C32.455,116.921 32.66,116.789 32.801,116.6 L44.5,101 L48,101 L58,101 L64,101 C64.284,101 64.554,100.88 64.743,100.669 L82.445,81 L86,81 L98,81 L112,81 L122,81 L124,81 L124,79 L122.721,79 Z M83,16 C83,11.038 87.038,7 92,7 C96.962,7 101,11.038 101,16 C101,20.962 96.962,25 92,25 C87.038,25 83,20.962 83,16 Z M33,52 C33,47.038 37.038,43 42,43 C46.962,43 51,47.038 51,52 C51,56.962 46.962,61 42,61 C37.038,61 33,56.962 33,52 Z M33.223,99.363 L22,110.586 L17.414,106 L26.707,96.707 C26.765,96.649 26.815,96.584 26.857,96.515 L32.714,86.754 C33.837,87.412 35.103,87.832 36.452,87.955 L40.578,88.33 L33.223,99.363 Z M49,99 L49,88 C49,87.483 48.605,87.051 48.09,87.004 L36.633,85.962 C34.428,85.762 32.492,84.568 31.323,82.688 C30.154,80.808 29.939,78.544 30.734,76.478 L36.492,61.506 C38.114,62.45 39.992,63 42,63 C44.346,63 46.517,62.256 48.305,61 L62,61 C62.265,61 62.52,60.895 62.707,60.707 L73.726,49.688 L76.809,55.853 L65.505,69.041 L43.91,71.004 L44.091,72.996 L46.693,72.759 L45.052,77.683 C44.96,77.961 44.993,78.265 45.144,78.515 C45.295,78.766 45.548,78.938 45.836,78.986 L54.494,80.429 C55.946,80.671 57,81.916 57,83.389 L57,99 L49,99 Z M82,79 C81.716,79 81.446,79.12 81.257,79.331 L63.555,99 L59,99 L59,83.389 C59,80.934 57.243,78.86 54.822,78.457 L47.319,77.207 L48.867,72.563 L66.09,70.997 C66.35,70.973 66.59,70.85 66.759,70.652 L78.66,56.767 L94.53,46.848 C94.686,46.75 94.812,46.612 94.895,46.447 L95.686,44.865 L96.91,49.762 L89.22,59.375 C89.12,59.5 89.052,59.646 89.02,59.803 L85.18,79 L82,79 Z M87.22,79 L90.933,60.435 L98.781,50.625 C98.976,50.381 99.046,50.061 98.97,49.758 L97.06,42.117 L98.895,38.448 L97.106,37.553 L93.232,45.302 L78.403,54.57 L75.289,48.343 L86.554,40.833 C86.751,40.701 86.896,40.504 86.961,40.276 L90.775,26.929 C91.178,26.972 91.586,27 92,27 C95.21,27 98.093,25.61 100.106,23.41 C107.242,29.566 112.18,38.001 114.031,47.253 C114.556,49.881 113.51,52.618 111.367,54.226 L99.4,63.2 C99.183,63.363 99.042,63.607 99.008,63.876 L97.117,79 L87.22,79 Z M105.244,61.317 L107.02,70.196 C107.032,70.256 107.049,70.314 107.072,70.371 L110.523,79 L99.133,79 L100.94,64.545 L105.244,61.317 Z M112.677,79 L108.962,69.714 L107.017,59.987 L112.567,55.825 C112.819,55.636 113.045,55.423 113.272,55.212 L115.051,62.317 L120.613,79 L112.677,79 Z" id="Shape" fill="#000000" fill-rule="nonzero"></path>
            <path d="M6,21 L44,21 C44.552,21 45,20.552 45,20 C45,13.935 40.065,9 34,9 C32.91,9 31.808,9.177 30.716,9.526 C27.896,6.642 24.029,5 20,5 C11.729,5 5,11.729 5,20 C5,20.552 5.448,21 6,21 Z M20,7 C23.684,7 27.214,8.586 29.686,11.352 C29.962,11.662 30.404,11.769 30.79,11.619 C31.861,11.208 32.941,11 34,11 C38.625,11 42.446,14.506 42.945,19 L7.038,19 C7.55,12.297 13.168,7 20,7 Z" id="Shape" fill="#000000" fill-rule="nonzero"></path>
            <rect id="Rectangle" fill="#000000" fill-rule="nonzero" x="36" y="27" width="2" height="2"></rect>
            <rect id="Rectangle" fill="#000000" fill-rule="nonzero" x="44" y="27" width="2" height="2"></rect>
            <rect id="Rectangle" fill="#000000" fill-rule="nonzero" x="52" y="27" width="2" height="2"></rect>
        </g>
    </g>
</svg>