<svg width="183" height="183" viewBox="0 0 183 183" fill="none" xmlns="http://www.w3.org/2000/svg">
<g filter="url(#filter0_d)">
<circle cx="91.5" cy="87.5" r="87.5" fill="#1F0B97"/>
</g>
<path d="M148.978 86.9154C148.978 81.2812 147.296 75.8807 143.978 70.8584C140.998 66.3508 136.824 62.3609 131.572 58.9978C121.431 52.5075 108.102 48.9318 94.0426 48.9318C89.3465 48.9318 84.7173 49.3294 80.2277 50.1176C77.4425 47.505 74.1814 45.1545 70.7308 43.2968C52.2968 34.3447 37.0097 43.0864 37.0097 43.0864C37.0097 43.0864 51.2227 54.7852 48.9114 65.0392C42.5532 71.3599 39.1062 78.9811 39.1062 86.9154C39.1062 86.9399 39.1075 86.9658 39.1075 86.9912C39.1075 87.0162 39.1062 87.0408 39.1062 87.0675C39.1062 95.0018 42.5519 102.623 48.9114 108.942C51.2227 119.197 37.0097 130.897 37.0097 130.897C37.0097 130.897 52.2968 139.637 70.7308 130.686C74.181 128.828 77.4412 126.477 80.2277 123.865C84.7182 124.653 89.3465 125.05 94.0426 125.05C108.103 125.05 121.431 121.477 131.572 114.986C136.824 111.623 140.998 107.635 143.978 103.125C147.296 98.1036 148.979 92.7004 148.979 87.0688C148.979 87.0425 148.977 87.0184 148.977 86.9925L148.978 86.9154Z" fill="#C1272D"/>
<path d="M94.0427 56.8972C120.076 56.8972 141.182 70.4047 141.182 87.0666C141.182 103.727 120.076 117.236 94.0427 117.236C88.2458 117.236 82.6939 116.564 77.5655 115.34C72.3527 121.622 60.8858 130.358 49.7462 127.535C53.3696 123.636 58.7377 117.047 57.5888 106.193C50.9117 100.988 46.9042 94.3267 46.9042 87.0666C46.9029 70.4034 68.0083 56.8972 94.0427 56.8972Z" fill="white"/>
<path d="M94.0425 94.3118C97.5014 94.3118 100.305 91.5028 100.305 88.0371C100.305 84.5719 97.5014 81.763 94.0425 81.763C90.5841 81.763 87.7806 84.5719 87.7806 88.0371C87.7806 91.5028 90.5841 94.3118 94.0425 94.3118ZM115.814 94.3118C119.273 94.3118 122.077 91.5028 122.077 88.0371C122.077 84.5719 119.273 81.763 115.814 81.763C112.356 81.763 109.552 84.5719 109.552 88.0371C109.552 91.5028 112.356 94.3118 115.814 94.3118ZM72.2699 94.3105C75.7279 94.3105 78.531 91.5019 78.531 88.0376C78.531 84.5728 75.7279 81.7638 72.2703 81.7638C68.8119 81.7638 66.0088 84.5728 66.0088 88.0371C66.0088 91.5019 68.8119 94.3105 72.2699 94.3105Z" fill="#C1272D"/>
<path d="M94.0425 113.266C88.2456 113.266 82.6938 112.683 77.5654 111.622C72.9629 116.431 63.4831 122.894 53.6591 122.657C52.3645 124.622 50.9575 126.229 49.7461 127.534C60.8857 130.357 72.3526 121.622 77.5654 115.339C82.6942 116.564 88.2465 117.235 94.0425 117.235C119.867 117.235 140.838 103.941 141.173 87.4638C140.838 101.746 119.867 113.266 94.0425 113.266V113.266Z" fill="#CCCCCC"/>
<defs>
<filter id="filter0_d" x="0" y="0" width="183" height="183" filterUnits="userSpaceOnUse" color-interpolation-filters="sRGB">
<feFlood flood-opacity="0" result="BackgroundImageFix"/>
<feColorMatrix in="SourceAlpha" type="matrix" values="0 0 0 0 0 0 0 0 0 0 0 0 0 0 0 0 0 0 127 0"/>
<feOffset dy="4"/>
<feGaussianBlur stdDeviation="2"/>
<feColorMatrix type="matrix" values="0 0 0 0 0.804167 0 0 0 0 0.710347 0 0 0 0 0.710347 0 0 0 0.25 0"/>
<feBlend mode="normal" in2="BackgroundImageFix" result="effect1_dropShadow"/>
<feBlend mode="normal" in="SourceGraphic" in2="effect1_dropShadow" result="shape"/>
</filter>
</defs>
</svg>
