<?xml version="1.0" encoding="UTF-8"?>
<svg width="137px" height="30px" viewBox="0 0 137 30" version="1.1" xmlns="http://www.w3.org/2000/svg" xmlns:xlink="http://www.w3.org/1999/xlink">
    <!-- Generator: Sketch 63.1 (92452) - https://sketch.com -->
    <title>logo-new</title>
    <desc>Created with Sketch.</desc>
    <g id="Page-1" stroke="none" stroke-width="1" fill="none" fill-rule="evenodd">
        <g id="logo-new" fill="#FFFFFF" fill-rule="nonzero">
            <path d="M35.2402,8.04883 C35.2402,8.41992 35.167,8.7666 35.0205,9.0889 C34.8838,9.4111 34.6934,9.6943 34.4492,9.9385 C34.2051,10.1729 33.917,10.3633 33.585,10.5098 C33.2627,10.6465 32.916,10.7148 32.5449,10.7148 C32.1738,10.7148 31.8223,10.6465 31.4902,10.5098 C31.168,10.3633 30.8848,10.1729 30.6406,9.9385 C30.4062,9.6943 30.2158,9.4111 30.0693,9.0889 C29.9326,8.7666 29.8643,8.41992 29.8643,8.04883 C29.8643,7.6875 29.9326,7.3457 30.0693,7.02344 C30.2158,6.69141 30.4062,6.4082 30.6406,6.17383 C30.8848,5.92969 31.168,5.73926 31.4902,5.60254 C31.8223,5.45605 32.1738,5.38281 32.5449,5.38281 C32.916,5.38281 33.2627,5.45605 33.585,5.60254 C33.917,5.73926 34.2051,5.92969 34.4492,6.17383 C34.6934,6.4082 34.8838,6.69141 35.0205,7.02344 C35.167,7.3457 35.2402,7.6875 35.2402,8.04883 Z M34.5518,28 L30.5234,28 L30.5234,12.3115 L34.5518,12.3115 L34.5518,28 Z M41.6123,28 L37.6133,28 L37.6133,12.3115 L38.5801,12.3115 L39.8984,13.835 C40.543,13.249 41.2705,12.7998 42.0811,12.4873 C42.9014,12.165 43.7559,12.0039 44.6445,12.0039 C45.6016,12.0039 46.5049,12.1895 47.3545,12.5605 C48.2041,12.9219 48.9463,13.4248 49.5811,14.0693 C50.2158,14.7041 50.7139,15.4512 51.0752,16.3105 C51.4463,17.1602 51.6318,18.0684 51.6318,19.0352 L51.6318,28 L47.6328,28 L47.6328,19.0352 C47.6328,18.625 47.5547,18.2393 47.3984,17.8779 C47.2422,17.5068 47.0273,17.1846 46.7539,16.9111 C46.4805,16.6377 46.1631,16.4229 45.8018,16.2666 C45.4404,16.1104 45.0547,16.0322 44.6445,16.0322 C44.2246,16.0322 43.8291,16.1104 43.458,16.2666 C43.0869,16.4229 42.7646,16.6377 42.4912,16.9111 C42.2178,17.1846 42.0029,17.5068 41.8467,17.8779 C41.6904,18.2393 41.6123,18.625 41.6123,19.0352 L41.6123,28 Z M68.1992,15.4316 L65.2695,18.376 C65.123,17.9658 64.9229,17.5996 64.6689,17.2773 C64.415,16.9453 64.127,16.667 63.8047,16.4424 C63.4922,16.2178 63.1504,16.0469 62.7793,15.9297 C62.4082,15.8125 62.0273,15.7539 61.6367,15.7539 C61.0898,15.7539 60.5723,15.8662 60.084,16.0908 C59.6055,16.3154 59.1855,16.6328 58.8242,17.043 C58.4727,17.4434 58.1943,17.9219 57.9893,18.4785 C57.7842,19.0352 57.6816,19.6504 57.6816,20.3242 C57.6816,20.8711 57.7842,21.3838 57.9893,21.8623 C58.1943,22.3408 58.4727,22.7607 58.8242,23.1221 C59.1855,23.4834 59.6055,23.7666 60.084,23.9717 C60.5723,24.1768 61.0898,24.2793 61.6367,24.2793 C62.0273,24.2793 62.4033,24.2256 62.7646,24.1182 C63.126,24.0107 63.4629,23.8594 63.7754,23.6641 C64.0977,23.459 64.3809,23.2148 64.625,22.9316 C64.8789,22.6387 65.084,22.3164 65.2402,21.9648 L68.1699,24.9092 C67.7988,25.4365 67.3691,25.9102 66.8809,26.3301 C66.4023,26.75 65.8799,27.1064 65.3135,27.3994 C64.7568,27.6924 64.166,27.9121 63.541,28.0586 C62.9258,28.2148 62.291,28.293 61.6367,28.293 C60.5332,28.293 59.4932,28.0879 58.5166,27.6777 C57.5498,27.2578 56.7002,26.6865 55.9678,25.9639 C55.2451,25.2412 54.6738,24.3965 54.2539,23.4297 C53.834,22.4629 53.624,21.4277 53.624,20.3242 C53.624,19.123 53.834,18 54.2539,16.9551 C54.6738,15.9102 55.2451,15.002 55.9678,14.2305 C56.7002,13.4492 57.5498,12.834 58.5166,12.3848 C59.4932,11.9355 60.5332,11.7109 61.6367,11.7109 C62.291,11.7109 62.9307,11.7939 63.5557,11.96 C64.1904,12.126 64.791,12.3701 65.3574,12.6924 C65.9336,13.0049 66.4609,13.3906 66.9395,13.8496 C67.4277,14.3086 67.8477,14.8359 68.1992,15.4316 Z M81.6904,26.1689 C81.3682,26.4619 81.0215,26.7402 80.6504,27.0039 C80.2891,27.2578 79.9082,27.4824 79.5078,27.6777 C79.1074,27.8633 78.6924,28.0098 78.2627,28.1172 C77.8428,28.2344 77.4131,28.293 76.9736,28.293 C76.0068,28.293 75.0986,28.1221 74.249,27.7803 C73.3994,27.4385 72.6523,26.9551 72.0078,26.3301 C71.373,25.6953 70.8701,24.9287 70.499,24.0303 C70.1377,23.1221 69.957,22.1064 69.957,20.9834 L69.957,12.3115 L73.9414,12.3115 L73.9414,20.9834 C73.9414,21.5107 74.0195,21.9844 74.1758,22.4043 C74.3418,22.8145 74.5615,23.1611 74.835,23.4443 C75.1084,23.7275 75.4258,23.9424 75.7871,24.0889 C76.1582,24.2354 76.5537,24.3086 76.9736,24.3086 C77.3838,24.3086 77.7695,24.2158 78.1309,24.0303 C78.502,23.835 78.8242,23.5811 79.0977,23.2686 C79.3711,22.9561 79.5859,22.6045 79.7422,22.2139 C79.8984,21.8135 79.9766,21.4033 79.9766,20.9834 L79.9766,12.3115 L83.9756,12.3115 L83.9756,28 L83.0088,28 L81.6904,26.1689 Z M102.74,20.0166 C102.74,21.2471 102.53,22.3701 102.11,23.3857 C101.69,24.4014 101.119,25.2754 100.396,26.0078 C99.6738,26.7305 98.8242,27.292 97.8477,27.6924 C96.8809,28.0928 95.8408,28.293 94.7275,28.293 C93.624,28.293 92.584,28.0879 91.6074,27.6777 C90.6406,27.2676 89.791,26.6963 89.0586,25.9639 C88.3359,25.2314 87.7646,24.3623 87.3447,23.3564 C86.9248,22.3408 86.7148,21.2275 86.7148,20.0166 L86.7148,6.07129 L90.7285,6.07129 L90.7285,13.3955 C90.9434,13.1221 91.2021,12.8779 91.5049,12.6631 C91.8174,12.4482 92.1494,12.2725 92.501,12.1357 C92.8623,11.999 93.2334,11.8965 93.6143,11.8281 C93.9951,11.75 94.3662,11.7109 94.7275,11.7109 C95.8408,11.7109 96.8809,11.9209 97.8477,12.3408 C98.8242,12.751 99.6738,13.3271 100.396,14.0693 C101.119,14.8115 101.69,15.6904 102.11,16.7061 C102.53,17.7119 102.74,18.8154 102.74,20.0166 Z M98.7119,20.0166 C98.7119,19.4111 98.6045,18.8496 98.3896,18.332 C98.1846,17.8047 97.9014,17.3506 97.54,16.9697 C97.1787,16.5889 96.7539,16.291 96.2656,16.0762 C95.7871,15.8613 95.2744,15.7539 94.7275,15.7539 C94.1807,15.7539 93.6631,15.876 93.1748,16.1201 C92.6963,16.3545 92.2764,16.6719 91.915,17.0723 C91.5537,17.4629 91.2705,17.917 91.0654,18.4346 C90.8604,18.9424 90.7578,19.4697 90.7578,20.0166 C90.7578,20.6221 90.8604,21.1836 91.0654,21.7012 C91.2705,22.2188 91.5537,22.668 91.915,23.0488 C92.2764,23.4297 92.6963,23.7324 93.1748,23.957 C93.6631,24.1719 94.1807,24.2793 94.7275,24.2793 C95.2744,24.2793 95.7871,24.1719 96.2656,23.957 C96.7539,23.7324 97.1787,23.4297 97.54,23.0488 C97.9014,22.668 98.1846,22.2188 98.3896,21.7012 C98.6045,21.1836 98.7119,20.6221 98.7119,20.0166 Z M111.207,24.1621 C111.363,24.2109 111.52,24.2451 111.676,24.2646 C111.832,24.2744 111.988,24.2793 112.145,24.2793 C112.535,24.2793 112.911,24.2256 113.272,24.1182 C113.634,24.0107 113.971,23.8594 114.283,23.6641 C114.605,23.459 114.889,23.2148 115.133,22.9316 C115.387,22.6387 115.592,22.3164 115.748,21.9648 L118.678,24.9092 C118.307,25.4365 117.877,25.9102 117.389,26.3301 C116.91,26.75 116.388,27.1064 115.821,27.3994 C115.265,27.6924 114.674,27.9121 114.049,28.0586 C113.434,28.2148 112.799,28.293 112.145,28.293 C111.041,28.293 110.001,28.0879 109.024,27.6777 C108.058,27.2676 107.208,26.6963 106.476,25.9639 C105.753,25.2314 105.182,24.3623 104.762,23.3564 C104.342,22.3408 104.132,21.2275 104.132,20.0166 C104.132,18.7764 104.342,17.6436 104.762,16.6182 C105.182,15.5928 105.753,14.7188 106.476,13.9961 C107.208,13.2734 108.058,12.7119 109.024,12.3115 C110.001,11.9111 111.041,11.7109 112.145,11.7109 C112.799,11.7109 113.438,11.7891 114.063,11.9453 C114.688,12.1016 115.279,12.3262 115.836,12.6191 C116.402,12.9121 116.93,13.2734 117.418,13.7031 C117.906,14.123 118.336,14.5967 118.707,15.124 L111.207,24.1621 Z M113.258,15.915 C113.072,15.8467 112.887,15.8027 112.701,15.7832 C112.525,15.7637 112.34,15.7539 112.145,15.7539 C111.598,15.7539 111.08,15.8564 110.592,16.0615 C110.113,16.2568 109.693,16.54 109.332,16.9111 C108.98,17.2822 108.702,17.7314 108.497,18.2588 C108.292,18.7764 108.189,19.3623 108.189,20.0166 C108.189,20.1631 108.194,20.3291 108.204,20.5146 C108.224,20.7002 108.248,20.8906 108.277,21.0859 C108.316,21.2715 108.36,21.4521 108.409,21.6279 C108.458,21.8037 108.521,21.96 108.6,22.0967 L113.258,15.915 Z M136.695,21.9941 C136.695,22.9414 136.48,23.8154 136.051,24.6162 C135.621,25.417 135.03,26.1104 134.278,26.6963 C133.536,27.2725 132.667,27.7217 131.671,28.0439 C130.675,28.376 129.61,28.542 128.478,28.542 C127.345,28.542 126.28,28.376 125.284,28.0439 C124.288,27.7217 123.414,27.2725 122.662,26.6963 C121.92,26.1104 121.334,25.417 120.904,24.6162 C120.475,23.8154 120.26,22.9414 120.26,21.9941 C120.26,21.4473 120.333,20.915 120.479,20.3975 C120.626,19.8701 120.836,19.377 121.109,18.918 C121.393,18.459 121.729,18.0391 122.12,17.6582 C122.511,17.2676 122.95,16.9355 123.438,16.6621 C123.136,16.3984 122.862,16.0957 122.618,15.7539 C122.384,15.4121 122.179,15.0508 122.003,14.6699 C121.837,14.2891 121.71,13.8984 121.622,13.498 C121.534,13.0879 121.49,12.6826 121.49,12.2822 C121.49,11.4619 121.671,10.6953 122.032,9.9824 C122.403,9.2598 122.906,8.62988 123.541,8.09277 C124.176,7.5459 124.918,7.11621 125.768,6.80371 C126.617,6.49121 127.521,6.33496 128.478,6.33496 C129.444,6.33496 130.353,6.49121 131.202,6.80371 C132.052,7.11621 132.794,7.5459 133.429,8.09277 C134.073,8.62988 134.576,9.2598 134.938,9.9824 C135.309,10.6953 135.494,11.4619 135.494,12.2822 C135.494,12.6826 135.445,13.0879 135.348,13.498 C135.26,13.8984 135.133,14.2939 134.967,14.6846 C134.801,15.0654 134.596,15.4268 134.352,15.7686 C134.117,16.1104 133.849,16.418 133.546,16.6914 C134.024,16.9648 134.459,17.292 134.85,17.6729 C135.24,18.0537 135.572,18.4736 135.846,18.9326 C136.119,19.3916 136.329,19.8799 136.476,20.3975 C136.622,20.915 136.695,21.4473 136.695,21.9941 Z M131.378,12.7363 C131.378,12.3945 131.3,12.0771 131.144,11.7842 C130.997,11.4814 130.792,11.2178 130.528,10.9932 C130.274,10.7686 129.972,10.5928 129.62,10.4658 C129.269,10.3389 128.897,10.2754 128.507,10.2754 C128.106,10.2754 127.73,10.3389 127.379,10.4658 C127.027,10.5928 126.72,10.7686 126.456,10.9932 C126.202,11.2178 125.997,11.4814 125.841,11.7842 C125.694,12.0771 125.621,12.3945 125.621,12.7363 C125.621,13.0781 125.694,13.3955 125.841,13.6885 C125.997,13.9814 126.202,14.2354 126.456,14.4502 C126.72,14.665 127.027,14.8359 127.379,14.9629 C127.73,15.0898 128.106,15.1533 128.507,15.1533 C128.897,15.1533 129.269,15.0898 129.62,14.9629 C129.972,14.8359 130.274,14.665 130.528,14.4502 C130.792,14.2354 130.997,13.9814 131.144,13.6885 C131.3,13.3955 131.378,13.0781 131.378,12.7363 Z M132.521,21.877 C132.521,21.4082 132.413,20.9736 132.198,20.5732 C131.993,20.1631 131.705,19.8066 131.334,19.5039 C130.973,19.2012 130.543,18.9619 130.045,18.7861 C129.557,18.6104 129.034,18.5225 128.478,18.5225 C127.921,18.5225 127.398,18.6104 126.91,18.7861 C126.422,18.9619 125.992,19.2012 125.621,19.5039 C125.26,19.8066 124.972,20.1631 124.757,20.5732 C124.552,20.9736 124.449,21.4082 124.449,21.877 C124.449,22.3457 124.552,22.7754 124.757,23.166 C124.972,23.5566 125.26,23.8936 125.621,24.1768 C125.992,24.46 126.422,24.6846 126.91,24.8506 C127.398,25.0068 127.921,25.085 128.478,25.085 C129.034,25.085 129.557,25.0068 130.045,24.8506 C130.543,24.6846 130.973,24.46 131.334,24.1768 C131.705,23.8936 131.993,23.5566 132.198,23.166 C132.413,22.7754 132.521,22.3457 132.521,21.877 Z" id="Shape"></path>
            <path d="M6.76471,23.1818 L0,23.1818 L0,13.6364 L6.76471,13.6364 L6.76471,0 L16.2353,0 L16.2353,6.81818 L23,6.81818 L23,16.3636 L16.2353,16.3636 L16.2353,30 L6.76471,30 L6.76471,23.1818 Z M16.2353,9.5455 L16.2353,13.6364 L20.2941,13.6364 L20.2941,9.5455 L16.2353,9.5455 Z M6.76471,20.4545 L6.76471,16.3636 L2.70588,16.3636 L2.70588,20.4545 L6.76471,20.4545 Z M13.5294,23.1818 L9.47059,23.1818 L9.47059,27.2727 L13.5294,27.2727 L13.5294,23.1818 Z M9.47059,6.81818 L13.5294,6.81818 L13.5294,2.72727 L9.47059,2.72727 L9.47059,6.81818 Z M9.47059,13.6364 L13.5294,13.6364 L13.5294,9.5455 L9.47059,9.5455 L9.47059,13.6364 Z M9.47059,20.4545 L13.5294,20.4545 L13.5294,16.3636 L9.47059,16.3636 L9.47059,20.4545 Z" id="Shape"></path>
        </g>
    </g>
</svg>